<?xml version="1.0" encoding="iso-8859-1"?>
<!-- Uploaded to: SVG Repo, www.svgrepo.com, Generator: SVG Repo Mixer Tools -->
<!DOCTYPE svg PUBLIC "-//W3C//DTD SVG 1.1//EN" "http://www.w3.org/Graphics/SVG/1.1/DTD/svg11.dtd">
<svg fill="#000000" version="1.1" id="Capa_1" xmlns="http://www.w3.org/2000/svg" xmlns:xlink="http://www.w3.org/1999/xlink" 
	 width="800px" height="800px" viewBox="0 0 565.158 565.158"
	 xml:space="preserve">
<g>
	<g>
		<path d="M563.261,396.561c-14.811-32.24-37.479-58.996-60.152-85.692c-22.398-26.368-51.016-39.555-85.631-35.614
			c-0.534,0.061-1.061,0.171-1.595,0.245c-4.88-0.347-9.756,0.632-13.975,3.333c-7.462,2.403-14.83,5.524-22.138,8.278
			c-13.876,5.235-27.128,12.163-41.11,17.047c-17.54,6.132-34.468,3.174-49.657-7.52c-9.303-6.545-17.5-14.823-27.23-20.551
			c-14.301-8.417-29.192-16.083-44.533-22.367c-6.23-2.55-15.06-2.656-21.347-0.273c-10.184,3.859-15.737-1.179-22.024-6.846
			c-24.782-22.326-49.67-44.542-74.378-66.949c-7.495-6.797-14.798-13.794-22.118-20.779c-2.636-8.715-9.784-15.643-18.649-17.944
			c-2.975-2.889-5.949-5.781-8.919-8.67c-2.848-5.5-7.332-9.845-12.975-12.591c-0.959-0.93-1.926-1.856-2.889-2.787l-0.783-0.885
			c-1.424-4.357-4.623-7.83-8.654-9.78c-0.135-0.151-0.265-0.302-0.4-0.453c-0.534-0.604-1.249-0.686-1.869-0.461
			c-0.155-0.049-0.298-0.118-0.457-0.159c-1.146-1.105-2.293-2.211-3.439-3.317c-2.493-2.815-4.981-5.634-7.475-8.45
			c-0.004-0.004-0.008-0.004-0.008-0.008c-1.967-2.958-5.528-4.875-9.29-4.312c-0.931,0.139-1.338,0.767-1.367,1.465
			c-0.314,0.636-0.298,1.428,0.343,2.097c1.489,1.562,2.982,3.121,4.476,4.684c15.455,18.723,30.437,37.875,46.781,55.786
			c30.983,33.958,62.921,67.042,94.476,100.486c3.652,3.872,7.157,7.915,11.11,11.452c7.405,6.63,7.609,16.924-0.824,22.783
			c-6.973,4.843-6.116,9.89-3.37,16.328c2.701,6.328,5.953,12.795,6.797,19.474c3.048,24.052,14.684,43.31,30.877,60.576
			c2.452,2.615,4.615,7.817,3.676,10.8c-1.848,5.862-7.446,5.83-12.75,3.888c-1.779-0.652-3.594-1.771-5.374-1.733
			c-4.039,0.081-8.066,0.742-12.097,1.171c0.69,4.729-0.069,10.412,2.313,14.019c11.84,17.903,40.302,20.967,55.851,5.736
			c5.565-5.455,9.511-6.006,16.157-2.758c7.609,3.721,15.782,6.752,24.043,8.543c7.12,1.543,10.069,5.569,11.6,11.824
			c2.685,10.967,8.389,19.494,16.072,26.263c1.604,2.257,3.88,3.974,6.54,5.051c2.403,1.628,4.933,3.134,7.581,4.529
			c11.236,5.924,22.786,6.847,34.125-0.869c2.603-1.771,6.43-1.934,9.751-2.419c18.352-2.673,29.882-29.58,19.144-44.84
			c-4.239-6.026-10.159-5.907-14.717,0.204c-3.194,4.284-6.854,12.24-9.719,11.983c-8.344-0.747-16.394-4.799-24.59-9.131
			c22.709-6.382,38.434-20.768,52.971-36.423c10.873-9.004,20.485-19.453,28.87-31.175c6.875-7.189,13.852-14.288,21.444-20.629
			c15.157-12.656,32.652-14.395,50.738-6.471c1.314,0.575,2.485,1.212,3.534,1.894c0.113,0.118,0.236,0.244,0.351,0.362
			c0.926,0.955,1.897,1.689,2.88,2.31c4.599,4.978,3.803,11.534-2.737,17.842c-4.288,4.133-9.511,7.295-14.305,10.906
			c-8.396,6.323-14.357,14.015-17.919,22.905c-3.415,2.603-4.202,7.029-3.031,10.75c-0.437,2.48-0.734,5.027-0.865,7.654
			c-0.184,3.786,2.733,7.724,4.223,11.596c2.505-2.489,4.745-5.345,7.581-7.364c3.468-2.469,7.226-5.06,11.24-6.084
			c4.492-1.146,9.421-0.742,14.157-0.75c11.29-0.017,22.094-1.261,30.278-11.787c7.099,12.407,17.923,15.643,30.714,16.438
			c4.329,0.27,9.417,4.623,12.244,8.507c3.411,4.68,6.646,7.332,12.411,6.223v-11.783c2.236-3.149,2.827-7.487,0-11.229v-3.578
			H563.261z"/>
	</g>
</g>
</svg>